<?xml version="1.0" encoding="UTF-8"?><svg id="Layer_2" xmlns="http://www.w3.org/2000/svg" viewBox="0 0 171.0759 171.0759"><g id="Components"><g id="_69afc7f8-777e-4daa-83ef-836178aa0aae_10"><path d="M72.4426,43.2753l8.6382-1.7337-11.3376,11.9915,9.1781-1.7337c-2.8477,4.1667-6.1445,7.9432-8.0947,11.7251l7.0172-1.4695-.2818,3.7729-36.1276,35.676c-2.683,7.5738-8.2428,25.6474-8.2428,25.6474,3.3876-.1839,9.0627-2.5637,11.1743-4.8996,5.4072-5.9815,4.235-17.8524,7.016-18.0839l2.1657,10.5223c-.658,2.2334-5.5804,6.0806-5.4183,8.0624.2451,2.9972,10.5871,12.1566,11.3561,15.9685h12.9573l-14.5571-13.7277c2.5522-2.8061,6.5748-3.6636,9.6513-6.025,6.3028-4.8378,7.373-12.6971,7.0625-20.2017.7355-.7354,17.7394.3893,20.8016.0159,1.4702-.1793,2.5979-.7766,3.7699-1.6203l15.1129,41.5587h9.9879c-1.2854-2.9237-4.657-5.538-6.1819-8.125-2.1456-3.64-5.4086-20.1426-6.5113-25.342-.7348-3.4651-2.5072-10.0357-2.4737-13.242.0097-.9313.0058-1.8125.8305-2.451l11.0971-6.4481v9.7179l-4.3528,1.4087.034,12.6232c.9316.2438,1.0808-.3741,1.6235-.8008,1.3616-1.0705,10.6831-9.8323,10.6831-9.8323,0,0,1.4375-20.2416-.7271-23.3471-2.856-4.0974-12.7762,4.194-16.436,4.8289-.0457-2.2228-.3343-4.7787-.9109-6.9176-.5871-2.1776-5.5978-12.9628-6.9923-14.0632-1.9695-1.5541-4.5196-1.6526-6.4277-4.3701-2.1834-3.1095-2.0365-8.5062,2.4503-8.6542-3.7838,8.2397,2.4438,8.4857,7.019,11.4141,1.9931,1.2757,7.4514,6.8768,9.8418,6.3881,1.6385-.335,6.5071-4.7479,6.3551-6.4322-.1175-1.3021-5.9017-10.482-6.9259-12.278-1.2839-2.2514-2.6531-4.491-4.3503-6.4654l3.1775-5.0491-33.9067,3.9267-8.7442,8.0648ZM106.9953,41.0071c2.2721-.2058,4.649,1.4127,5.9386,3.2284-2.6562.41-4.6018-1.0808-5.9386-3.2284Z" style="fill:#1e3032;"/><path d="M99.4368,138.721c-1.8-9.427-11.492-13.1066-17.2653-19.7211l-.0078-.7846c4.9588-2.2865,5.6871-8.9725,3.7032-13.7041-1.5314-3.9834-3.3123-3.1754-8.0283-3.045.1451,3.1693.0111,6.1191-.7952,9.1926-.909,3.4647-3.1656,5.9847-4.3565,9.184-.2342.6291-.1674,1.3266.1928,1.8931,2.6114,4.107,15.3819,11.5214,14.1398,16.9852h12.4174Z" style="fill:#1e3032;"/><path d="M85.5379,171.0759c-22.8479,0-44.3284-8.8975-60.4845-25.0534C8.8975,129.8666,0,108.3861,0,85.5379S8.8975,41.2093,25.0534,25.0534C41.2095,8.8975,62.69,0,85.5379,0s44.3284,8.8975,60.4843,25.0534c16.1561,16.1559,25.0536,37.6364,25.0536,60.4845s-8.8975,44.3286-25.0536,60.4845c-16.1559,16.1559-37.6364,25.0534-60.4843,25.0534ZM85.5379,5.1126C41.1912,5.1126,5.1126,41.1912,5.1126,85.5379s36.0786,80.4253,80.4253,80.4253,80.4253-36.0786,80.4253-80.4253S129.8846,5.1126,85.5379,5.1126Z" style="fill:#1e3032;"/></g></g></svg>