<?xml version="1.0" encoding="UTF-8"?><svg id="Layer_2" xmlns="http://www.w3.org/2000/svg" viewBox="0 0 476.5285 205.3412"><g id="Components"><g id="d0339778-ab31-455d-bfad-aced29a78f33_5"><path d="M474.4059,8.0286h2.1227V0h-83.8195v8.0286l8.2389-.007c6.349.6049,10.9416,2.0036,13.6446,4.1568,2.5765,2.0569,3.9379,4.8471,4.1549,8.4024,0,4.1922-1.1675,7.4237-3.3738,9.7049l-67.1925,53.2366v-50.1155c0-8.9718,1.6813-15.5414,4.9963-19.5345,3.2208-3.8754,10.4042-5.8436,21.3479-5.8436h2.1227V0h-119.0218l-48.9196,100.7757L158.7424,0H33.4194v8.0286h10.1891c10.9416,0,18.1233,1.9682,21.3442,5.8436,3.3184,3.9967,5,10.5663,5,19.5345v69.1733c0,13.7299-2.5535,22.5701-7.5911,26.2749-5.2294,3.8542-11.769,5.8079-19.344,5.8079-7.2138-.3024-12.6819-1.4163-16.2481-3.3026-3.532-1.8684-4.3967-3.2171-4.5925-3.8862,11.1784-3.8044,16.8474-10.1499,16.8458-18.9152-.1371-5.8045-1.557-10.5342-4.2155-14.0539-2.8009-3.7118-7.7441-5.6301-14.7138-5.7013-5.2583,0-9.9329,1.573-13.8939,4.6763C2.082,96.7078-.0053,102.1921,0,109.9219c.6248,8.8046,5.1107,16.5841,13.3316,23.1324,8.1195,6.4594,19.3157,9.769,33.2857,9.8367,16.4648,0,30.0366-3.9539,40.3379-11.7477,10.4878-7.9327,15.8064-18.6519,15.8064-31.866V33.4068c0-8.9647,1.6816-15.5379,5.0019-19.5345.262-.3155.5508-.6182.866-.9081,3.7259-3.4265,9.733-3.428,13.5185-.0676.3496.3103.666.6356.9488.9757,3.3184,3.9967,5.0019,10.5698,5.0019,19.5345v69.1733c0,8.9788-2.1761,16.2105-6.47,21.4988-4.1903,5.1533-11.2052,7.7655-20.8497,7.7655h-2.1227v8.0322h67.1089v-8.0322h-2.1227c-9.7352,0-16.531-2.8293-20.7782-8.6515-4.3383-5.9433-6.5377-13.5308-6.5377-22.5524V26.2429l55.6283,113.6337h6.6353l54.9379-113.2636v79.8568c0,8.9718-1.6816,15.5414-4.9966,19.5345-3.219,3.8754-11.0538,5.8401-23.2875,5.8401h-2.1227v8.0322h153.5266v-8.0322h-2.1227c-10.9453,0-18.1289-1.9646-21.3479-5.8401-3.315-3.9931-4.9963-10.5627-4.9963-19.5345v-11.5057l29.5184-23.3674,32.0206,49.7562c1.0251,1.7225,1.5448,3.3203,1.5448,4.7439,0,1.388-1.7904,2.694-3.292,3.5446-1.7705,1.0037-6.2974,2.203-17.8047,2.203h-2.123v8.0322h88.4832v-8.0322h-2.1227c-7.2029,0-12.7727-1.0001-16.5577-2.9681-3.8469-1.9965-8.3185-6.0393-13.1497-11.8189l-34.263-52.1167h-16.9369l-2.6738-3.3868,11.116-9.5343,17.1001-13.7941c23.524-20.0362,42.1513-30.1968,55.365-30.1968ZM315.372,106.4698c0,8.9647-1.6832,15.5379-5.0035,19.5345-.8231.9915-1.9125,1.8546-3.2592,2.5914-3.9307,2.1506-8.781,2.251-12.8332.3393-1.7105-.807-3.0498-1.7828-4.0028-2.9307-3.3184-3.9967-5-10.5663-5-19.5345V33.4068c0-8.9683,1.6816-15.5379,5.0019-19.5345.9521-1.1468,2.2895-2.1224,3.9974-2.9293,4.0533-1.9152,8.9071-1.8143,12.8392.3387,1.3457.7368,2.4348,1.5998,3.2584,2.5906,3.3187,3.9967,5.0019,10.5698,5.0019,19.5345v73.063Z" style="fill:#fff;"/><polygon points="103.9224 187.1827 119.3298 197.8554 134.7363 187.1827 119.3298 176.5092 103.9224 187.1827" style="fill:#fff;"/><polygon points="357.1988 176.5092 341.7923 187.1827 357.1988 197.8554 372.6062 187.1827 357.1988 176.5092" style="fill:#fff;"/><path d="M192.926,172.4214l-8.966,24.5294c-.2545.6843-.5436.8327-.6016.8327-.0584,0-.3475-.1484-.6011-.8291l-9.0127-24.533h-4.5774l-3.5276,32.9198h4.6044l2.2206-20.6313c.0683-.6825.2859-.9244.2999-.9469.058.0117.3448.2023.5836.8623l7.6365,20.7158h4.7037l7.6392-20.8148c.2365-.6663.5143-.856.5305-.8758.0562.0279.2801.2761.3502.9774l2.2192,20.7132h4.6062l-3.5739-32.9198h-4.5338Z" style="fill:#fff;"/><rect x="212.3223" y="172.4214" width="4.505" height="32.9198" style="fill:#fff;"/><path d="M235.9466,172.4214l-9.3585,32.9198h4.7581l2.0079-7.1514c.2396-.8372.7185-1.195,1.601-1.195h6.6154c.8826,0,1.3614.3579,1.5997,1.1914l2.0088,7.155h4.7581l-9.3585-32.9198h-4.6322ZM241.1525,192.1832c-.1448.1942-.4941.3048-.9586.3048h-3.8625c-.4644,0-.8138-.1106-.9586-.3048-.1448-.1933-.1529-.5575-.0189-1.0125l2.3991-8.6207c.1852-.6852.4523-.8884.4946-.9019.0584.0126.3345.2131.5265.9082l2.4013,8.627c.1304.4424.1218.8066-.0229.9999Z" style="fill:#fff;"/><path d="M285.905,172.4214l-8.9655,24.5294c-.2545.6843-.544.8327-.602.8327s-.3475-.1484-.6011-.8291l-9.0123-24.533h-4.5778l-3.5271,32.9198h4.6039l2.2206-20.6313c.0683-.6825.2864-.9244.2999-.9469.0584.0117.3453.2023.584.8623l7.6365,20.7158h4.7033l7.6401-20.8148c.2356-.6663.5134-.856.5296-.8758.0562.0279.2806.2761.3507.9774l2.2192,20.7132h4.6057l-3.5739-32.9198h-4.5338Z" style="fill:#fff;"/><rect x="305.3012" y="172.4214" width="4.5055" height="32.9198" style="fill:#fff;"/></g></g></svg>