<?xml version="1.0" encoding="UTF-8"?><svg id="Layer_2" xmlns="http://www.w3.org/2000/svg" viewBox="0 0 338.9561 387.6088"><g id="Components"><g id="_5b985420-30a7-4e93-b58b-b37ccdbee10f_10"><path d="M96.0935,162.1053l-14.5511-2.9204,19.0983,20.1998-15.4605-2.9204c4.7971,7.0188,10.3504,13.3804,13.6356,19.751l-11.8205-2.4754.4748,6.3554,60.8574,60.0965c4.5196,12.7581,13.885,43.2033,13.885,43.2033-5.7065-.3098-15.2663-4.3186-18.8233-8.2534-9.1084-10.0759-7.134-30.0725-11.8186-30.4625l-3.6482,17.725c1.1084,3.7621,9.4002,10.2429,9.1272,13.5812-.4129,5.0488-17.8341,20.4779-19.1294,26.899h-21.8266l24.5215-23.1244c-4.2992-4.7269-11.0754-6.1714-16.2577-10.1491-10.6171-8.1493-12.42-21.3884-11.8969-34.0299-1.2389-1.2388-29.8822.6558-35.0405.0268-2.4766-.302-4.3762-1.3082-6.3504-2.7294l-25.4578,70.006H8.787c2.1653-4.925,7.8447-9.3287,10.4135-13.6867,3.6143-6.1316,9.1109-33.9304,10.9683-42.6888,1.2378-5.8369,4.2234-16.9053,4.167-22.3063-.0164-1.5688-.0098-3.0531-1.3989-4.1287l-18.6932-10.8619v16.37l7.3323,2.373-.0573,21.2639c-1.5693.4107-1.8207-.6302-2.7348-1.3489-2.2937-1.8032-17.9958-16.5627-17.9958-16.5627,0,0-2.4215-34.0972,1.2248-39.3284,4.811-6.9021,21.5216,7.0648,27.6866,8.1344.077-3.7443.5631-8.0497,1.5345-11.6527.9889-3.6682,9.4295-21.836,11.7786-23.6896,3.3177-2.6179,7.6133-2.7839,10.8276-7.3614,3.6779-5.2379,3.4306-14.3287-4.1276-14.5781,6.3738,13.8799-4.1166,14.2943-11.8236,19.2272-3.3574,2.1489-12.552,11.5841-16.5785,10.7608-2.7601-.5643-10.9612-7.9979-10.7053-10.8351.1979-2.1935,9.9414-17.657,11.6667-20.6824,2.1627-3.7925,4.4692-7.5651,7.3281-10.8911l-5.3525-8.5052,57.1162,6.6146,14.7297,13.5852ZM37.8891,158.2846c-3.8274-.3466-7.8313,2.3798-10.0036,5.4383,4.4745.6907,7.7518-1.8206,10.0036-5.4383Z" style="fill:#1e3032;"/><path d="M50.6214,322.8844c3.0322-15.8799,19.3584-22.0782,29.0836-33.2203l.0132-1.3217c-8.3531-3.8517-9.58-15.1143-6.2381-23.0847,2.5796-6.7101,5.5796-5.3489,13.5237-5.1294-.2444,5.3387-.0187,10.3076,1.3396,15.485,1.5312,5.8364,5.3325,10.0814,7.3385,15.4705.3945,1.0598.282,2.2346-.3247,3.1889-4.3989,6.9183-25.9109,19.408-23.8186,28.6117h-20.9172Z" style="fill:#1e3032;"/><path d="M242.8626,162.1053l14.5511-2.9204-19.0983,20.1998,15.4605-2.9204c-4.7971,7.0188-10.3504,13.3804-13.6356,19.751l11.8205-2.4754-.4748,6.3554-60.8574,60.0965c-4.5196,12.7581-13.885,43.2033-13.885,43.2033,5.7065-.3098,15.2663-4.3186,18.8233-8.2534,9.1084-10.0759,7.134-30.0725,11.8186-30.4625l3.6482,17.725c-1.1084,3.7621-9.4002,10.2429-9.1272,13.5812.4129,5.0488,17.8341,20.4779,19.1294,26.899h21.8266l-24.5215-23.1244c4.2992-4.7269,11.0754-6.1714,16.2577-10.1491,10.6171-8.1493,12.42-21.3884,11.8969-34.0299,1.2389-1.2388,29.8822.6558,35.0405.0268,2.4766-.302,4.3762-1.3082,6.3504-2.7294l25.4578,70.006h16.8247c-2.1653-4.925-7.8447-9.3287-10.4135-13.6867-3.6143-6.1316-9.1109-33.9304-10.9683-42.6888-1.2378-5.8369-4.2234-16.9053-4.167-22.3063.0164-1.5688.0098-3.0531,1.3989-4.1287l18.6932-10.8619v16.37l-7.3323,2.373.0573,21.2639c1.5693.4107,1.8207-.6302,2.7348-1.3489,2.2937-1.8032,17.9958-16.5627,17.9958-16.5627,0,0,2.4215-34.0972-1.2248-39.3284-4.811-6.9021-21.5216,7.0648-27.6866,8.1344-.077-3.7443-.5631-8.0497-1.5345-11.6527-.9889-3.6682-9.4295-21.836-11.7786-23.6896-3.3177-2.6179-7.6133-2.7839-10.8276-7.3614-3.6779-5.2379-3.4306-14.3287,4.1276-14.5781-6.3738,13.8799,4.1166,14.2943,11.8236,19.2272,3.3574,2.1489,12.552,11.5841,16.5785,10.7608,2.7601-.5643,10.9612-7.9979,10.7053-10.8351-.1979-2.1935-9.9414-17.657-11.6667-20.6824-2.1627-3.7925-4.4692-7.5651-7.3281-10.8911l5.3525-8.5052-57.1162,6.6146-14.7297,13.5852ZM301.067,158.2846c3.8274-.3466,7.8313,2.3798,10.0036,5.4383-4.4745.6907-7.7518-1.8206-10.0036-5.4383Z" style="fill:#1e3032;"/><path d="M288.3347,322.8844c-3.0322-15.8799-19.3584-22.0782-29.0836-33.2203l-.0132-1.3217c8.3531-3.8517,9.58-15.1143,6.2381-23.0847-2.5796-6.7101-5.5796-5.3489-13.5237-5.1294.2444,5.3387.0187,10.3076-1.3396,15.485-1.5312,5.8364-5.3325,10.0814-7.3385,15.4705-.3945,1.0598-.282,2.2346.3247,3.1889,4.3989,6.9183,25.9109,19.408,23.8186,28.6117h20.9172Z" style="fill:#1e3032;"/><path d="M169.4781,0l-81.5981,117.7939,81.5981,117.794,81.598-117.794L169.4781,0ZM163.042,83.2438l.463.9017c1.4677,2.858,3.2346,4.3074,5.2516,4.3074,3.7278,0,6.2106-2.3833,6.2106-14.0144v-27.8617h5.4154v28.9765c0,8.5271-1.3144,18.315-11.564,18.315-4.1148,0-7.8246-2.4658-9.9241-6.5961l-.3211-.6323,4.4685-3.396ZM166.7014,167.8667l16.6372,21.1445h-6.9945l-13.1993-16.8623c-.9706-1.2843-1.5731-1.438-1.7075-1.3939-.143.048-.5515.5612-.5515,2.2327v16.0234h-5.4154v-47.1057h5.4154v17.4568c0,1.4999.374,2.1054.5551,2.1636.1394.0447.7496-.1197,1.6826-1.4202l13.557-18.053h6.8053l-16.8157,22.5147c-.8105,1.1652-.803,2.2796.0313,3.2993ZM194.1302,133.1668l.1776-28.2653c0-1.4349-.3068-1.6858-.3098-1.688-.0003,0-.0028-.0004-.0136-.0004-.0935,0-.6871.0573-2.1545,1.5163l-22.6133,28.7188-22.3431-28.7203c-1.2586-1.2472-1.9498-1.3498-2.1119-1.2829-.1015.0419-.3646.3864-.3646,1.4619l-.0938,28.2599h-5.5365v-46.5178l28.9116,34.0673c.7142.7109,1.1811,1.0326,1.5116,1.0418.0053.0002.0102.0004.0152.0004.3485,0,.8456-.3329,1.5609-1.0449l29.4231-34.064-.5239,46.5173h-5.5351Z" style="fill:#1e3032;"/><polygon points="52.0085 379.1094 65.6287 369.6745 52.0085 360.2395 38.3882 369.6745 52.0085 379.1094" style="fill:#1e3032;"/><polygon points="286.9476 379.1094 300.5678 369.6745 286.9476 360.2395 273.3274 369.6745 286.9476 379.1094" style="fill:#1e3032;"/><path d="M124.6983,355.0945l-8.8551,24.2281c-.2518.6759-.5373.8215-.595.8215-.0573,0-.3428-.1457-.5933-.818l-8.9017-24.2317h-4.521l-3.4837,32.5143h4.5472l2.1932-20.3763c.0675-.6741.2829-.9139.2957-.9361.0577.0124.341.1998.5768.8526l7.5424,20.4598h4.6458l7.5451-20.5584c.2331-.6581.5076-.8455.5236-.8641.0555.0275.2771.2718.3464.9645l2.1919,20.458h4.5494l-3.5299-32.5143h-4.4779Z" style="fill:#1e3032;"/><rect x="143.8557" y="355.0945" width="4.45" height="32.5143" style="fill:#1e3032;"/><path d="M167.189,355.0945l-9.2432,32.5143h4.6995l1.9832-7.0624c.2367-.8277.7096-1.1812,1.5813-1.1812h6.5339c.8717,0,1.3446.3535,1.58,1.1777l1.9841,7.0659h4.6995l-9.2432-32.5143h-4.5752ZM172.3308,374.6138c-.143.1918-.488.3011-.9467.3011h-3.8149c-.4587,0-.8038-.1092-.9467-.3011-.143-.1909-.151-.5515-.0187-1.0009l2.3695-8.5136c.183-.6768.4467-.8775.4885-.8908.0577.0124.3304.2105.52.897l2.3717,8.5198c.1288.437.1203.7975-.0226.9885Z" style="fill:#1e3032;"/><path d="M216.5324,355.0945l-8.8551,24.2281c-.2518.6759-.5378.8215-.595.8215s-.3433-.1457-.5937-.818l-8.9008-24.2317h-4.5219l-3.4837,32.5143h4.5477l2.1932-20.3763c.0671-.6741.2824-.9139.2957-.9361.0577.0124.341.1998.5768.8526l7.5424,20.4598h4.6458l7.5451-20.5584c.2331-.6581.5076-.8455.5236-.8641.0555.0275.2767.2718.3464.9645l2.1919,20.458h4.549l-3.5299-32.5143h-4.4775Z" style="fill:#1e3032;"/><rect x="235.6893" y="355.0945" width="4.45" height="32.5143" style="fill:#1e3032;"/></g></g></svg>